<?xml version="1.0" standalone="no"?>
<!DOCTYPE svg PUBLIC "-//W3C//DTD SVG 20010904//EN"
 "http://www.w3.org/TR/2001/REC-SVG-20010904/DTD/svg10.dtd">
<svg version="1.0" xmlns="http://www.w3.org/2000/svg"
 width="1848.000000pt" height="1563.000000pt" viewBox="0 0 1848.000000 1563.000000"
 preserveAspectRatio="xMidYMid meet">

<g transform="translate(0.000000,1563.000000) scale(0.100000,-0.100000)"
fill="#000000" stroke="none">
<path d="M12675 12304 c-302 -32 -543 -95 -881 -230 -1283 -512 -2159 -1289
-2730 -2421 l-81 -162 -166 247 c-185 276 -186 279 -256 458 -169 433 -484
759 -956 990 -245 119 -479 191 -775 235 -192 29 -522 31 -715 5 -423 -58
-785 -217 -1145 -504 -126 -100 -385 -361 -489 -492 -346 -435 -568 -923 -638
-1399 -23 -155 -22 -448 1 -586 75 -450 332 -925 711 -1314 321 -329 574 -510
1333 -953 246 -143 512 -301 592 -351 788 -491 1224 -904 1615 -1530 144 -231
243 -416 496 -926 l240 -484 68 114 c544 916 684 1129 1123 1716 625 836 1255
1556 2687 3073 438 464 606 648 803 883 547 653 889 1254 1067 1877 54 188 75
325 74 500 0 331 -100 581 -317 793 -208 203 -613 374 -1046 442 -101 16 -519
29 -615 19z m275 -1690 c81 -23 151 -86 171 -154 47 -160 -41 -540 -201 -865
-84 -171 -168 -305 -299 -478 -161 -215 -268 -334 -787 -878 -1128 -1183
-1825 -2016 -2400 -2869 -239 -355 -298 -455 -460 -774 l-152 -299 -38 63
c-116 190 -397 600 -553 808 -318 422 -562 704 -936 1078 -444 444 -879 806
-1415 1177 -155 107 -241 185 -388 352 -136 154 -195 235 -256 354 -177 343
-181 713 -11 1056 192 387 570 644 1080 734 411 73 865 -6 1282 -224 255 -133
451 -281 689 -519 230 -232 323 -351 530 -681 139 -223 210 -305 265 -305 72
0 106 35 364 380 529 708 936 1121 1425 1447 488 325 1043 534 1590 597 255
30 394 30 500 0z"/>
</g>
</svg>
